<svg width="215" height="35" viewBox="0 0 215 35" fill="none" xmlns="http://www.w3.org/2000/svg">
<rect x="0.5" y="0.5" width="214" height="34" rx="3.5" fill="#363F5C" stroke="white"/>
<path d="M41.128 22V13.6H44.8C45.712 13.6 46.512 13.776 47.2 14.128C47.888 14.48 48.424 14.968 48.808 15.592C49.192 16.216 49.384 16.952 49.384 17.8C49.384 18.64 49.192 19.376 48.808 20.008C48.424 20.632 47.888 21.12 47.2 21.472C46.512 21.824 45.712 22 44.8 22H41.128ZM42.688 20.68H44.728C45.36 20.68 45.904 20.56 46.36 20.32C46.824 20.08 47.18 19.744 47.428 19.312C47.684 18.88 47.812 18.376 47.812 17.8C47.812 17.216 47.684 16.712 47.428 16.288C47.18 15.856 46.824 15.52 46.36 15.28C45.904 15.04 45.36 14.92 44.728 14.92H42.688V20.68ZM53.7781 22.084C53.1221 22.084 52.5381 21.944 52.0261 21.664C51.5141 21.376 51.1101 20.984 50.8141 20.488C50.5181 19.992 50.3701 19.428 50.3701 18.796C50.3701 18.156 50.5181 17.592 50.8141 17.104C51.1101 16.608 51.5141 16.22 52.0261 15.94C52.5381 15.66 53.1221 15.52 53.7781 15.52C54.4421 15.52 55.0301 15.66 55.5421 15.94C56.0621 16.22 56.4661 16.604 56.7541 17.092C57.0501 17.58 57.1981 18.148 57.1981 18.796C57.1981 19.428 57.0501 19.992 56.7541 20.488C56.4661 20.984 56.0621 21.376 55.5421 21.664C55.0301 21.944 54.4421 22.084 53.7781 22.084ZM53.7781 20.8C54.1461 20.8 54.4741 20.72 54.7621 20.56C55.0501 20.4 55.2741 20.168 55.4341 19.864C55.6021 19.56 55.6861 19.204 55.6861 18.796C55.6861 18.38 55.6021 18.024 55.4341 17.728C55.2741 17.424 55.0501 17.192 54.7621 17.032C54.4741 16.872 54.1501 16.792 53.7901 16.792C53.4221 16.792 53.0941 16.872 52.8061 17.032C52.5261 17.192 52.3021 17.424 52.1341 17.728C51.9661 18.024 51.8821 18.38 51.8821 18.796C51.8821 19.204 51.9661 19.56 52.1341 19.864C52.3021 20.168 52.5261 20.4 52.8061 20.56C53.0941 20.72 53.4181 20.8 53.7781 20.8ZM59.8727 22L57.5207 15.592H58.9367L60.9527 21.244H60.2807L62.3927 15.592H63.6527L65.7047 21.244H65.0447L67.1207 15.592H68.4527L66.0887 22H64.6487L62.7767 16.996H63.2207L61.3127 22H59.8727ZM73.12 15.52C73.632 15.52 74.088 15.62 74.488 15.82C74.896 16.02 75.216 16.328 75.448 16.744C75.68 17.152 75.796 17.68 75.796 18.328V22H74.296V18.52C74.296 17.952 74.16 17.528 73.888 17.248C73.624 16.968 73.252 16.828 72.772 16.828C72.42 16.828 72.108 16.9 71.836 17.044C71.564 17.188 71.352 17.404 71.2 17.692C71.056 17.972 70.984 18.328 70.984 18.76V22H69.484V15.592H70.912V17.32L70.66 16.792C70.884 16.384 71.208 16.072 71.632 15.856C72.064 15.632 72.56 15.52 73.12 15.52ZM77.6988 22V13.096H79.1988V22H77.6988ZM84.0476 22.084C83.3916 22.084 82.8076 21.944 82.2956 21.664C81.7836 21.376 81.3796 20.984 81.0836 20.488C80.7876 19.992 80.6396 19.428 80.6396 18.796C80.6396 18.156 80.7876 17.592 81.0836 17.104C81.3796 16.608 81.7836 16.22 82.2956 15.94C82.8076 15.66 83.3916 15.52 84.0476 15.52C84.7116 15.52 85.2996 15.66 85.8116 15.94C86.3316 16.22 86.7356 16.604 87.0236 17.092C87.3196 17.58 87.4676 18.148 87.4676 18.796C87.4676 19.428 87.3196 19.992 87.0236 20.488C86.7356 20.984 86.3316 21.376 85.8116 21.664C85.2996 21.944 84.7116 22.084 84.0476 22.084ZM84.0476 20.8C84.4156 20.8 84.7436 20.72 85.0316 20.56C85.3196 20.4 85.5436 20.168 85.7036 19.864C85.8716 19.56 85.9556 19.204 85.9556 18.796C85.9556 18.38 85.8716 18.024 85.7036 17.728C85.5436 17.424 85.3196 17.192 85.0316 17.032C84.7436 16.872 84.4196 16.792 84.0596 16.792C83.6916 16.792 83.3636 16.872 83.0756 17.032C82.7956 17.192 82.5716 17.424 82.4036 17.728C82.2356 18.024 82.1516 18.38 82.1516 18.796C82.1516 19.204 82.2356 19.56 82.4036 19.864C82.5716 20.168 82.7956 20.4 83.0756 20.56C83.3636 20.72 83.6876 20.8 84.0476 20.8ZM92.7679 22V20.704L92.6839 20.428V18.16C92.6839 17.72 92.5519 17.38 92.2879 17.14C92.0239 16.892 91.6239 16.768 91.0879 16.768C90.7279 16.768 90.3719 16.824 90.0199 16.936C89.6759 17.048 89.3839 17.204 89.1439 17.404L88.5559 16.312C88.8999 16.048 89.3079 15.852 89.7799 15.724C90.2599 15.588 90.7559 15.52 91.2679 15.52C92.1959 15.52 92.9119 15.744 93.4159 16.192C93.9279 16.632 94.1839 17.316 94.1839 18.244V22H92.7679ZM90.7519 22.084C90.2719 22.084 89.8519 22.004 89.4919 21.844C89.1319 21.676 88.8519 21.448 88.6519 21.16C88.4599 20.864 88.3639 20.532 88.3639 20.164C88.3639 19.804 88.4479 19.48 88.6159 19.192C88.7919 18.904 89.0759 18.676 89.4679 18.508C89.8599 18.34 90.3799 18.256 91.0279 18.256H92.8879V19.252H91.1359C90.6239 19.252 90.2799 19.336 90.1039 19.504C89.9279 19.664 89.8399 19.864 89.8399 20.104C89.8399 20.376 89.9479 20.592 90.1639 20.752C90.3799 20.912 90.6799 20.992 91.0639 20.992C91.4319 20.992 91.7599 20.908 92.0479 20.74C92.3439 20.572 92.5559 20.324 92.6839 19.996L92.9359 20.896C92.7919 21.272 92.5319 21.564 92.1559 21.772C91.7879 21.98 91.3199 22.084 90.7519 22.084ZM98.8327 22.084C98.2167 22.084 97.6607 21.948 97.1647 21.676C96.6767 21.396 96.2927 21.012 96.0127 20.524C95.7327 20.036 95.5927 19.46 95.5927 18.796C95.5927 18.132 95.7327 17.556 96.0127 17.068C96.2927 16.58 96.6767 16.2 97.1647 15.928C97.6607 15.656 98.2167 15.52 98.8327 15.52C99.3687 15.52 99.8487 15.64 100.273 15.88C100.697 16.112 101.033 16.468 101.281 16.948C101.529 17.428 101.653 18.044 101.653 18.796C101.653 19.54 101.533 20.156 101.293 20.644C101.053 21.124 100.721 21.484 100.297 21.724C99.8727 21.964 99.3847 22.084 98.8327 22.084ZM99.0127 20.8C99.3727 20.8 99.6927 20.72 99.9727 20.56C100.261 20.4 100.489 20.168 100.657 19.864C100.833 19.56 100.921 19.204 100.921 18.796C100.921 18.38 100.833 18.024 100.657 17.728C100.489 17.424 100.261 17.192 99.9727 17.032C99.6927 16.872 99.3727 16.792 99.0127 16.792C98.6527 16.792 98.3287 16.872 98.0407 17.032C97.7607 17.192 97.5327 17.424 97.3567 17.728C97.1887 18.024 97.1047 18.38 97.1047 18.796C97.1047 19.204 97.1887 19.56 97.3567 19.864C97.5327 20.168 97.7607 20.4 98.0407 20.56C98.3287 20.72 98.6527 20.8 99.0127 20.8ZM100.957 22V20.488L101.017 18.784L100.897 17.08V13.096H102.385V22H100.957ZM106.631 22L110.411 13.6H111.947L115.739 22H114.107L110.855 14.428H111.479L108.239 22H106.631ZM108.371 20.056L108.791 18.832H113.327L113.747 20.056H108.371ZM116.808 22V13.6H120.264C121.008 13.6 121.644 13.72 122.172 13.96C122.708 14.2 123.12 14.544 123.408 14.992C123.696 15.44 123.84 15.972 123.84 16.588C123.84 17.204 123.696 17.736 123.408 18.184C123.12 18.632 122.708 18.976 122.172 19.216C121.644 19.456 121.008 19.576 120.264 19.576H117.672L118.368 18.844V22H116.808ZM118.368 19.012L117.672 18.256H120.192C120.88 18.256 121.396 18.112 121.74 17.824C122.092 17.528 122.268 17.116 122.268 16.588C122.268 16.052 122.092 15.64 121.74 15.352C121.396 15.064 120.88 14.92 120.192 14.92H117.672L118.368 14.152V19.012ZM126.79 20.02L126.706 18.172L131.11 13.6H132.862L129.202 17.488L128.338 18.436L126.79 20.02ZM125.398 22V13.6H126.958V22H125.398ZM131.254 22L128.038 18.172L129.07 17.032L133.078 22H131.254ZM137.516 22V15.232C137.516 14.56 137.712 14.024 138.104 13.624C138.504 13.216 139.072 13.012 139.808 13.012C140.072 13.012 140.32 13.04 140.552 13.096C140.792 13.152 140.992 13.24 141.152 13.36L140.744 14.488C140.632 14.4 140.504 14.336 140.36 14.296C140.216 14.248 140.068 14.224 139.916 14.224C139.604 14.224 139.368 14.312 139.208 14.488C139.048 14.656 138.968 14.912 138.968 15.256V15.976L139.016 16.648V22H137.516ZM136.46 16.84V15.64H140.732V16.84H136.46ZM144.528 22.084C143.872 22.084 143.288 21.944 142.776 21.664C142.264 21.376 141.86 20.984 141.564 20.488C141.268 19.992 141.12 19.428 141.12 18.796C141.12 18.156 141.268 17.592 141.564 17.104C141.86 16.608 142.264 16.22 142.776 15.94C143.288 15.66 143.872 15.52 144.528 15.52C145.192 15.52 145.78 15.66 146.292 15.94C146.812 16.22 147.216 16.604 147.504 17.092C147.8 17.58 147.948 18.148 147.948 18.796C147.948 19.428 147.8 19.992 147.504 20.488C147.216 20.984 146.812 21.376 146.292 21.664C145.78 21.944 145.192 22.084 144.528 22.084ZM144.528 20.8C144.896 20.8 145.224 20.72 145.512 20.56C145.8 20.4 146.024 20.168 146.184 19.864C146.352 19.56 146.436 19.204 146.436 18.796C146.436 18.38 146.352 18.024 146.184 17.728C146.024 17.424 145.8 17.192 145.512 17.032C145.224 16.872 144.9 16.792 144.54 16.792C144.172 16.792 143.844 16.872 143.556 17.032C143.276 17.192 143.052 17.424 142.884 17.728C142.716 18.024 142.632 18.38 142.632 18.796C142.632 19.204 142.716 19.56 142.884 19.864C143.052 20.168 143.276 20.4 143.556 20.56C143.844 20.72 144.168 20.8 144.528 20.8ZM149.382 22V15.592H150.81V17.356L150.642 16.84C150.834 16.408 151.134 16.08 151.542 15.856C151.958 15.632 152.474 15.52 153.09 15.52V16.948C153.026 16.932 152.966 16.924 152.91 16.924C152.854 16.916 152.798 16.912 152.742 16.912C152.174 16.912 151.722 17.08 151.386 17.416C151.05 17.744 150.882 18.236 150.882 18.892V22H149.382ZM156.694 22L160.474 13.6H162.01L165.802 22H164.17L160.918 14.428H161.542L158.302 22H156.694ZM158.434 20.056L158.854 18.832H163.39L163.81 20.056H158.434ZM170.362 15.52C170.874 15.52 171.33 15.62 171.73 15.82C172.138 16.02 172.458 16.328 172.69 16.744C172.922 17.152 173.038 17.68 173.038 18.328V22H171.538V18.52C171.538 17.952 171.402 17.528 171.13 17.248C170.866 16.968 170.494 16.828 170.014 16.828C169.662 16.828 169.35 16.9 169.078 17.044C168.806 17.188 168.594 17.404 168.442 17.692C168.298 17.972 168.226 18.328 168.226 18.76V22H166.726V15.592H168.154V17.32L167.902 16.792C168.126 16.384 168.45 16.072 168.874 15.856C169.306 15.632 169.802 15.52 170.362 15.52ZM177.665 22.084C177.049 22.084 176.493 21.948 175.997 21.676C175.509 21.396 175.125 21.012 174.845 20.524C174.565 20.036 174.425 19.46 174.425 18.796C174.425 18.132 174.565 17.556 174.845 17.068C175.125 16.58 175.509 16.2 175.997 15.928C176.493 15.656 177.049 15.52 177.665 15.52C178.201 15.52 178.681 15.64 179.105 15.88C179.529 16.112 179.865 16.468 180.113 16.948C180.361 17.428 180.485 18.044 180.485 18.796C180.485 19.54 180.365 20.156 180.125 20.644C179.885 21.124 179.553 21.484 179.129 21.724C178.705 21.964 178.217 22.084 177.665 22.084ZM177.845 20.8C178.205 20.8 178.525 20.72 178.805 20.56C179.093 20.4 179.321 20.168 179.489 19.864C179.665 19.56 179.753 19.204 179.753 18.796C179.753 18.38 179.665 18.024 179.489 17.728C179.321 17.424 179.093 17.192 178.805 17.032C178.525 16.872 178.205 16.792 177.845 16.792C177.485 16.792 177.161 16.872 176.873 17.032C176.593 17.192 176.365 17.424 176.189 17.728C176.021 18.024 175.937 18.38 175.937 18.796C175.937 19.204 176.021 19.56 176.189 19.864C176.365 20.168 176.593 20.4 176.873 20.56C177.161 20.72 177.485 20.8 177.845 20.8ZM179.789 22V20.488L179.849 18.784L179.729 17.08V13.096H181.217V22H179.789ZM183.191 22V15.592H184.619V17.356L184.451 16.84C184.643 16.408 184.943 16.08 185.351 15.856C185.767 15.632 186.283 15.52 186.899 15.52V16.948C186.835 16.932 186.775 16.924 186.719 16.924C186.663 16.916 186.607 16.912 186.551 16.912C185.983 16.912 185.531 17.08 185.195 17.416C184.859 17.744 184.691 18.236 184.691 18.892V22H183.191ZM190.993 22.084C190.337 22.084 189.753 21.944 189.241 21.664C188.729 21.376 188.325 20.984 188.029 20.488C187.733 19.992 187.585 19.428 187.585 18.796C187.585 18.156 187.733 17.592 188.029 17.104C188.325 16.608 188.729 16.22 189.241 15.94C189.753 15.66 190.337 15.52 190.993 15.52C191.657 15.52 192.245 15.66 192.757 15.94C193.277 16.22 193.681 16.604 193.969 17.092C194.265 17.58 194.413 18.148 194.413 18.796C194.413 19.428 194.265 19.992 193.969 20.488C193.681 20.984 193.277 21.376 192.757 21.664C192.245 21.944 191.657 22.084 190.993 22.084ZM190.993 20.8C191.361 20.8 191.689 20.72 191.977 20.56C192.265 20.4 192.489 20.168 192.649 19.864C192.817 19.56 192.901 19.204 192.901 18.796C192.901 18.38 192.817 18.024 192.649 17.728C192.489 17.424 192.265 17.192 191.977 17.032C191.689 16.872 191.365 16.792 191.005 16.792C190.637 16.792 190.309 16.872 190.021 17.032C189.741 17.192 189.517 17.424 189.349 17.728C189.181 18.024 189.097 18.38 189.097 18.796C189.097 19.204 189.181 19.56 189.349 19.864C189.517 20.168 189.741 20.4 190.021 20.56C190.309 20.72 190.633 20.8 190.993 20.8ZM195.847 22V15.592H197.347V22H195.847ZM196.603 14.536C196.323 14.536 196.091 14.448 195.907 14.272C195.731 14.096 195.643 13.884 195.643 13.636C195.643 13.38 195.731 13.168 195.907 13C196.091 12.824 196.323 12.736 196.603 12.736C196.883 12.736 197.111 12.82 197.287 12.988C197.471 13.148 197.563 13.352 197.563 13.6C197.563 13.864 197.475 14.088 197.299 14.272C197.123 14.448 196.891 14.536 196.603 14.536ZM202.028 22.084C201.412 22.084 200.856 21.948 200.36 21.676C199.872 21.396 199.488 21.012 199.208 20.524C198.928 20.036 198.788 19.46 198.788 18.796C198.788 18.132 198.928 17.556 199.208 17.068C199.488 16.58 199.872 16.2 200.36 15.928C200.856 15.656 201.412 15.52 202.028 15.52C202.564 15.52 203.044 15.64 203.468 15.88C203.892 16.112 204.228 16.468 204.476 16.948C204.724 17.428 204.848 18.044 204.848 18.796C204.848 19.54 204.728 20.156 204.488 20.644C204.248 21.124 203.916 21.484 203.492 21.724C203.068 21.964 202.58 22.084 202.028 22.084ZM202.208 20.8C202.568 20.8 202.888 20.72 203.168 20.56C203.456 20.4 203.684 20.168 203.852 19.864C204.028 19.56 204.116 19.204 204.116 18.796C204.116 18.38 204.028 18.024 203.852 17.728C203.684 17.424 203.456 17.192 203.168 17.032C202.888 16.872 202.568 16.792 202.208 16.792C201.848 16.792 201.524 16.872 201.236 17.032C200.956 17.192 200.728 17.424 200.552 17.728C200.384 18.024 200.3 18.38 200.3 18.796C200.3 19.204 200.384 19.56 200.552 19.864C200.728 20.168 200.956 20.4 201.236 20.56C201.524 20.72 201.848 20.8 202.208 20.8ZM204.152 22V20.488L204.212 18.784L204.092 17.08V13.096H205.58V22H204.152Z" fill="white"/>
<path d="M0 4C0 1.79086 1.79086 0 4 0H33V35H4C1.79086 35 0 33.2091 0 31V4Z" fill="white"/>
<path d="M7.73123 27.0094C7.73238 27.1414 7.76835 27.2708 7.83552 27.3844C7.90269 27.4981 7.99867 27.592 8.11376 27.6567C8.22886 27.7214 8.35899 27.7545 8.49101 27.7528C8.62302 27.7511 8.75224 27.7145 8.86561 27.6469L24.5969 18.6375C24.7126 18.576 24.8094 18.4842 24.8769 18.3719C24.9444 18.2596 24.9801 18.131 24.9801 18C24.9801 17.869 24.9444 17.7404 24.8769 17.6281C24.8094 17.5158 24.7126 17.424 24.5969 17.3625L8.86561 8.35313C8.75224 8.28546 8.62302 8.24892 8.49101 8.24719C8.35899 8.24547 8.22886 8.27862 8.11376 8.3433C7.99867 8.40798 7.90269 8.5019 7.83552 8.61557C7.76835 8.72923 7.73238 8.85861 7.73123 8.99063V27.0094Z" stroke="#363F5C" stroke-width="2" stroke-linecap="round" stroke-linejoin="round"/>
<path d="M7.95627 8.45625L20.4906 20.9906" stroke="#363F5C" stroke-width="2" stroke-linecap="round" stroke-linejoin="round"/>
<path d="M7.95627 27.5437L20.4906 15.0094" stroke="#363F5C" stroke-width="2" stroke-linecap="round" stroke-linejoin="round"/>
</svg>
