<svg width="220" height="35" viewBox="0 0 220 35" fill="none" xmlns="http://www.w3.org/2000/svg">
<rect x="0.5" y="0.5" width="219" height="34" rx="3.5" fill="#363F5C" stroke="white"/>
<path d="M39.128 22V13.6H42.8C43.712 13.6 44.512 13.776 45.2 14.128C45.888 14.48 46.424 14.968 46.808 15.592C47.192 16.216 47.384 16.952 47.384 17.8C47.384 18.64 47.192 19.376 46.808 20.008C46.424 20.632 45.888 21.12 45.2 21.472C44.512 21.824 43.712 22 42.8 22H39.128ZM40.688 20.68H42.728C43.36 20.68 43.904 20.56 44.36 20.32C44.824 20.08 45.18 19.744 45.428 19.312C45.684 18.88 45.812 18.376 45.812 17.8C45.812 17.216 45.684 16.712 45.428 16.288C45.18 15.856 44.824 15.52 44.36 15.28C43.904 15.04 43.36 14.92 42.728 14.92H40.688V20.68ZM51.7781 22.084C51.1221 22.084 50.5381 21.944 50.0261 21.664C49.5141 21.376 49.1101 20.984 48.8141 20.488C48.5181 19.992 48.3701 19.428 48.3701 18.796C48.3701 18.156 48.5181 17.592 48.8141 17.104C49.1101 16.608 49.5141 16.22 50.0261 15.94C50.5381 15.66 51.1221 15.52 51.7781 15.52C52.4421 15.52 53.0301 15.66 53.5421 15.94C54.0621 16.22 54.4661 16.604 54.7541 17.092C55.0501 17.58 55.1981 18.148 55.1981 18.796C55.1981 19.428 55.0501 19.992 54.7541 20.488C54.4661 20.984 54.0621 21.376 53.5421 21.664C53.0301 21.944 52.4421 22.084 51.7781 22.084ZM51.7781 20.8C52.1461 20.8 52.4741 20.72 52.7621 20.56C53.0501 20.4 53.2741 20.168 53.4341 19.864C53.6021 19.56 53.6861 19.204 53.6861 18.796C53.6861 18.38 53.6021 18.024 53.4341 17.728C53.2741 17.424 53.0501 17.192 52.7621 17.032C52.4741 16.872 52.1501 16.792 51.7901 16.792C51.4221 16.792 51.0941 16.872 50.8061 17.032C50.5261 17.192 50.3021 17.424 50.1341 17.728C49.9661 18.024 49.8821 18.38 49.8821 18.796C49.8821 19.204 49.9661 19.56 50.1341 19.864C50.3021 20.168 50.5261 20.4 50.8061 20.56C51.0941 20.72 51.4181 20.8 51.7781 20.8ZM57.8727 22L55.5207 15.592H56.9367L58.9527 21.244H58.2807L60.3927 15.592H61.6527L63.7047 21.244H63.0447L65.1207 15.592H66.4527L64.0887 22H62.6487L60.7767 16.996H61.2207L59.3127 22H57.8727ZM71.12 15.52C71.632 15.52 72.088 15.62 72.488 15.82C72.896 16.02 73.216 16.328 73.448 16.744C73.68 17.152 73.796 17.68 73.796 18.328V22H72.296V18.52C72.296 17.952 72.16 17.528 71.888 17.248C71.624 16.968 71.252 16.828 70.772 16.828C70.42 16.828 70.108 16.9 69.836 17.044C69.564 17.188 69.352 17.404 69.2 17.692C69.056 17.972 68.984 18.328 68.984 18.76V22H67.484V15.592H68.912V17.32L68.66 16.792C68.884 16.384 69.208 16.072 69.632 15.856C70.064 15.632 70.56 15.52 71.12 15.52ZM75.6988 22V13.096H77.1988V22H75.6988ZM82.0476 22.084C81.3916 22.084 80.8076 21.944 80.2956 21.664C79.7836 21.376 79.3796 20.984 79.0836 20.488C78.7876 19.992 78.6396 19.428 78.6396 18.796C78.6396 18.156 78.7876 17.592 79.0836 17.104C79.3796 16.608 79.7836 16.22 80.2956 15.94C80.8076 15.66 81.3916 15.52 82.0476 15.52C82.7116 15.52 83.2996 15.66 83.8116 15.94C84.3316 16.22 84.7356 16.604 85.0236 17.092C85.3196 17.58 85.4676 18.148 85.4676 18.796C85.4676 19.428 85.3196 19.992 85.0236 20.488C84.7356 20.984 84.3316 21.376 83.8116 21.664C83.2996 21.944 82.7116 22.084 82.0476 22.084ZM82.0476 20.8C82.4156 20.8 82.7436 20.72 83.0316 20.56C83.3196 20.4 83.5436 20.168 83.7036 19.864C83.8716 19.56 83.9556 19.204 83.9556 18.796C83.9556 18.38 83.8716 18.024 83.7036 17.728C83.5436 17.424 83.3196 17.192 83.0316 17.032C82.7436 16.872 82.4196 16.792 82.0596 16.792C81.6916 16.792 81.3636 16.872 81.0756 17.032C80.7956 17.192 80.5716 17.424 80.4036 17.728C80.2356 18.024 80.1516 18.38 80.1516 18.796C80.1516 19.204 80.2356 19.56 80.4036 19.864C80.5716 20.168 80.7956 20.4 81.0756 20.56C81.3636 20.72 81.6876 20.8 82.0476 20.8ZM90.7679 22V20.704L90.6839 20.428V18.16C90.6839 17.72 90.5519 17.38 90.2879 17.14C90.0239 16.892 89.6239 16.768 89.0879 16.768C88.7279 16.768 88.3719 16.824 88.0199 16.936C87.6759 17.048 87.3839 17.204 87.1439 17.404L86.5559 16.312C86.8999 16.048 87.3079 15.852 87.7799 15.724C88.2599 15.588 88.7559 15.52 89.2679 15.52C90.1959 15.52 90.9119 15.744 91.4159 16.192C91.9279 16.632 92.1839 17.316 92.1839 18.244V22H90.7679ZM88.7519 22.084C88.2719 22.084 87.8519 22.004 87.4919 21.844C87.1319 21.676 86.8519 21.448 86.6519 21.16C86.4599 20.864 86.3639 20.532 86.3639 20.164C86.3639 19.804 86.4479 19.48 86.6159 19.192C86.7919 18.904 87.0759 18.676 87.4679 18.508C87.8599 18.34 88.3799 18.256 89.0279 18.256H90.8879V19.252H89.1359C88.6239 19.252 88.2799 19.336 88.1039 19.504C87.9279 19.664 87.8399 19.864 87.8399 20.104C87.8399 20.376 87.9479 20.592 88.1639 20.752C88.3799 20.912 88.6799 20.992 89.0639 20.992C89.4319 20.992 89.7599 20.908 90.0479 20.74C90.3439 20.572 90.5559 20.324 90.6839 19.996L90.9359 20.896C90.7919 21.272 90.5319 21.564 90.1559 21.772C89.7879 21.98 89.3199 22.084 88.7519 22.084ZM96.8327 22.084C96.2167 22.084 95.6607 21.948 95.1647 21.676C94.6767 21.396 94.2927 21.012 94.0127 20.524C93.7327 20.036 93.5927 19.46 93.5927 18.796C93.5927 18.132 93.7327 17.556 94.0127 17.068C94.2927 16.58 94.6767 16.2 95.1647 15.928C95.6607 15.656 96.2167 15.52 96.8327 15.52C97.3687 15.52 97.8487 15.64 98.2727 15.88C98.6967 16.112 99.0327 16.468 99.2807 16.948C99.5287 17.428 99.6527 18.044 99.6527 18.796C99.6527 19.54 99.5327 20.156 99.2927 20.644C99.0527 21.124 98.7207 21.484 98.2967 21.724C97.8727 21.964 97.3847 22.084 96.8327 22.084ZM97.0127 20.8C97.3727 20.8 97.6927 20.72 97.9727 20.56C98.2607 20.4 98.4887 20.168 98.6567 19.864C98.8327 19.56 98.9207 19.204 98.9207 18.796C98.9207 18.38 98.8327 18.024 98.6567 17.728C98.4887 17.424 98.2607 17.192 97.9727 17.032C97.6927 16.872 97.3727 16.792 97.0127 16.792C96.6527 16.792 96.3287 16.872 96.0407 17.032C95.7607 17.192 95.5327 17.424 95.3567 17.728C95.1887 18.024 95.1047 18.38 95.1047 18.796C95.1047 19.204 95.1887 19.56 95.3567 19.864C95.5327 20.168 95.7607 20.4 96.0407 20.56C96.3287 20.72 96.6527 20.8 97.0127 20.8ZM98.9567 22V20.488L99.0167 18.784L98.8967 17.08V13.096H100.385V22H98.9567ZM107.523 22V14.92H104.739V13.6H111.867V14.92H109.083V22H107.523ZM115.25 22.084C114.538 22.084 113.914 21.944 113.378 21.664C112.85 21.376 112.438 20.984 112.142 20.488C111.854 19.992 111.71 19.428 111.71 18.796C111.71 18.156 111.85 17.592 112.13 17.104C112.418 16.608 112.81 16.22 113.306 15.94C113.81 15.66 114.382 15.52 115.022 15.52C115.646 15.52 116.202 15.656 116.69 15.928C117.178 16.2 117.562 16.584 117.842 17.08C118.122 17.576 118.262 18.16 118.262 18.832C118.262 18.896 118.258 18.968 118.25 19.048C118.25 19.128 118.246 19.204 118.238 19.276H112.898V18.28H117.446L116.858 18.592C116.866 18.224 116.79 17.9 116.63 17.62C116.47 17.34 116.25 17.12 115.97 16.96C115.698 16.8 115.382 16.72 115.022 16.72C114.654 16.72 114.33 16.8 114.05 16.96C113.778 17.12 113.562 17.344 113.402 17.632C113.25 17.912 113.174 18.244 113.174 18.628V18.868C113.174 19.252 113.262 19.592 113.438 19.888C113.614 20.184 113.862 20.412 114.182 20.572C114.502 20.732 114.87 20.812 115.286 20.812C115.646 20.812 115.97 20.756 116.258 20.644C116.546 20.532 116.802 20.356 117.026 20.116L117.83 21.04C117.542 21.376 117.178 21.636 116.738 21.82C116.306 21.996 115.81 22.084 115.25 22.084ZM121.683 22.084C121.147 22.084 120.631 22.016 120.135 21.88C119.647 21.736 119.259 21.564 118.971 21.364L119.547 20.224C119.835 20.408 120.179 20.56 120.579 20.68C120.979 20.8 121.379 20.86 121.779 20.86C122.251 20.86 122.591 20.796 122.799 20.668C123.015 20.54 123.123 20.368 123.123 20.152C123.123 19.976 123.051 19.844 122.907 19.756C122.763 19.66 122.575 19.588 122.343 19.54C122.111 19.492 121.851 19.448 121.563 19.408C121.283 19.368 120.999 19.316 120.711 19.252C120.431 19.18 120.175 19.08 119.943 18.952C119.711 18.816 119.523 18.636 119.379 18.412C119.235 18.188 119.163 17.892 119.163 17.524C119.163 17.116 119.279 16.764 119.511 16.468C119.743 16.164 120.067 15.932 120.483 15.772C120.907 15.604 121.407 15.52 121.983 15.52C122.415 15.52 122.851 15.568 123.291 15.664C123.731 15.76 124.095 15.896 124.383 16.072L123.807 17.212C123.503 17.028 123.195 16.904 122.883 16.84C122.579 16.768 122.275 16.732 121.971 16.732C121.515 16.732 121.175 16.8 120.951 16.936C120.735 17.072 120.627 17.244 120.627 17.452C120.627 17.644 120.699 17.788 120.843 17.884C120.987 17.98 121.175 18.056 121.407 18.112C121.639 18.168 121.895 18.216 122.175 18.256C122.463 18.288 122.747 18.34 123.027 18.412C123.307 18.484 123.563 18.584 123.795 18.712C124.035 18.832 124.227 19.004 124.371 19.228C124.515 19.452 124.587 19.744 124.587 20.104C124.587 20.504 124.467 20.852 124.227 21.148C123.995 21.444 123.663 21.676 123.231 21.844C122.799 22.004 122.283 22.084 121.683 22.084ZM128.291 22.084C127.587 22.084 127.043 21.904 126.659 21.544C126.275 21.176 126.083 20.636 126.083 19.924V14.176H127.583V19.888C127.583 20.192 127.659 20.428 127.811 20.596C127.971 20.764 128.191 20.848 128.471 20.848C128.807 20.848 129.087 20.76 129.311 20.584L129.731 21.652C129.555 21.796 129.339 21.904 129.083 21.976C128.827 22.048 128.563 22.084 128.291 22.084ZM125.027 16.84V15.64H129.299V16.84H125.027ZM133.658 24.412C133.066 24.412 132.486 24.332 131.918 24.172C131.358 24.02 130.898 23.796 130.538 23.5L131.21 22.372C131.49 22.604 131.842 22.788 132.266 22.924C132.698 23.068 133.134 23.14 133.574 23.14C134.278 23.14 134.794 22.976 135.122 22.648C135.45 22.328 135.614 21.844 135.614 21.196V20.056L135.734 18.604L135.686 17.152V15.592H137.114V21.028C137.114 22.188 136.818 23.04 136.226 23.584C135.634 24.136 134.778 24.412 133.658 24.412ZM133.466 21.712C132.858 21.712 132.306 21.584 131.81 21.328C131.322 21.064 130.934 20.7 130.646 20.236C130.366 19.772 130.226 19.228 130.226 18.604C130.226 17.988 130.366 17.448 130.646 16.984C130.934 16.52 131.322 16.16 131.81 15.904C132.306 15.648 132.858 15.52 133.466 15.52C134.01 15.52 134.498 15.628 134.93 15.844C135.362 16.06 135.706 16.396 135.962 16.852C136.226 17.308 136.358 17.892 136.358 18.604C136.358 19.316 136.226 19.904 135.962 20.368C135.706 20.824 135.362 21.164 134.93 21.388C134.498 21.604 134.01 21.712 133.466 21.712ZM133.694 20.44C134.07 20.44 134.406 20.364 134.702 20.212C134.998 20.052 135.226 19.836 135.386 19.564C135.554 19.284 135.638 18.964 135.638 18.604C135.638 18.244 135.554 17.928 135.386 17.656C135.226 17.376 134.998 17.164 134.702 17.02C134.406 16.868 134.07 16.792 133.694 16.792C133.318 16.792 132.978 16.868 132.674 17.02C132.378 17.164 132.146 17.376 131.978 17.656C131.818 17.928 131.738 18.244 131.738 18.604C131.738 18.964 131.818 19.284 131.978 19.564C132.146 19.836 132.378 20.052 132.674 20.212C132.978 20.364 133.318 20.44 133.694 20.44ZM139.086 22V13.096H140.586V22H139.086ZM142.554 22V15.592H144.054V22H142.554ZM143.31 14.536C143.03 14.536 142.798 14.448 142.614 14.272C142.438 14.096 142.35 13.884 142.35 13.636C142.35 13.38 142.438 13.168 142.614 13C142.798 12.824 143.03 12.736 143.31 12.736C143.59 12.736 143.818 12.82 143.994 12.988C144.178 13.148 144.27 13.352 144.27 13.6C144.27 13.864 144.182 14.088 144.006 14.272C143.83 14.448 143.598 14.536 143.31 14.536ZM148.927 24.412C148.335 24.412 147.755 24.332 147.187 24.172C146.627 24.02 146.167 23.796 145.807 23.5L146.479 22.372C146.759 22.604 147.111 22.788 147.535 22.924C147.967 23.068 148.403 23.14 148.843 23.14C149.547 23.14 150.063 22.976 150.391 22.648C150.719 22.328 150.883 21.844 150.883 21.196V20.056L151.003 18.604L150.955 17.152V15.592H152.383V21.028C152.383 22.188 152.087 23.04 151.495 23.584C150.903 24.136 150.047 24.412 148.927 24.412ZM148.735 21.712C148.127 21.712 147.575 21.584 147.079 21.328C146.591 21.064 146.203 20.7 145.915 20.236C145.635 19.772 145.495 19.228 145.495 18.604C145.495 17.988 145.635 17.448 145.915 16.984C146.203 16.52 146.591 16.16 147.079 15.904C147.575 15.648 148.127 15.52 148.735 15.52C149.279 15.52 149.767 15.628 150.199 15.844C150.631 16.06 150.975 16.396 151.231 16.852C151.495 17.308 151.627 17.892 151.627 18.604C151.627 19.316 151.495 19.904 151.231 20.368C150.975 20.824 150.631 21.164 150.199 21.388C149.767 21.604 149.279 21.712 148.735 21.712ZM148.963 20.44C149.339 20.44 149.675 20.364 149.971 20.212C150.267 20.052 150.495 19.836 150.655 19.564C150.823 19.284 150.907 18.964 150.907 18.604C150.907 18.244 150.823 17.928 150.655 17.656C150.495 17.376 150.267 17.164 149.971 17.02C149.675 16.868 149.339 16.792 148.963 16.792C148.587 16.792 148.247 16.868 147.943 17.02C147.647 17.164 147.415 17.376 147.247 17.656C147.087 17.928 147.007 18.244 147.007 18.604C147.007 18.964 147.087 19.284 147.247 19.564C147.415 19.836 147.647 20.052 147.943 20.212C148.247 20.364 148.587 20.44 148.963 20.44ZM157.991 15.52C158.503 15.52 158.959 15.62 159.359 15.82C159.767 16.02 160.087 16.328 160.319 16.744C160.551 17.152 160.667 17.68 160.667 18.328V22H159.167V18.52C159.167 17.952 159.031 17.528 158.759 17.248C158.495 16.968 158.123 16.828 157.643 16.828C157.291 16.828 156.979 16.9 156.707 17.044C156.435 17.188 156.223 17.404 156.071 17.692C155.927 17.972 155.855 18.328 155.855 18.76V22H154.355V13.096H155.855V17.32L155.531 16.792C155.755 16.384 156.079 16.072 156.503 15.856C156.935 15.632 157.431 15.52 157.991 15.52ZM164.982 22.084C164.278 22.084 163.734 21.904 163.35 21.544C162.966 21.176 162.774 20.636 162.774 19.924V14.176H164.274V19.888C164.274 20.192 164.35 20.428 164.502 20.596C164.662 20.764 164.882 20.848 165.162 20.848C165.498 20.848 165.778 20.76 166.002 20.584L166.422 21.652C166.246 21.796 166.03 21.904 165.774 21.976C165.518 22.048 165.254 22.084 164.982 22.084ZM161.718 16.84V15.64H165.99V16.84H161.718ZM171.176 22V15.232C171.176 14.56 171.372 14.024 171.764 13.624C172.164 13.216 172.732 13.012 173.468 13.012C173.732 13.012 173.98 13.04 174.212 13.096C174.452 13.152 174.652 13.24 174.812 13.36L174.404 14.488C174.292 14.4 174.164 14.336 174.02 14.296C173.876 14.248 173.728 14.224 173.576 14.224C173.264 14.224 173.028 14.312 172.868 14.488C172.708 14.656 172.628 14.912 172.628 15.256V15.976L172.676 16.648V22H171.176ZM170.12 16.84V15.64H174.392V16.84H170.12ZM178.188 22.084C177.532 22.084 176.948 21.944 176.436 21.664C175.924 21.376 175.52 20.984 175.224 20.488C174.928 19.992 174.78 19.428 174.78 18.796C174.78 18.156 174.928 17.592 175.224 17.104C175.52 16.608 175.924 16.22 176.436 15.94C176.948 15.66 177.532 15.52 178.188 15.52C178.852 15.52 179.44 15.66 179.952 15.94C180.472 16.22 180.876 16.604 181.164 17.092C181.46 17.58 181.608 18.148 181.608 18.796C181.608 19.428 181.46 19.992 181.164 20.488C180.876 20.984 180.472 21.376 179.952 21.664C179.44 21.944 178.852 22.084 178.188 22.084ZM178.188 20.8C178.556 20.8 178.884 20.72 179.172 20.56C179.46 20.4 179.684 20.168 179.844 19.864C180.012 19.56 180.096 19.204 180.096 18.796C180.096 18.38 180.012 18.024 179.844 17.728C179.684 17.424 179.46 17.192 179.172 17.032C178.884 16.872 178.56 16.792 178.2 16.792C177.832 16.792 177.504 16.872 177.216 17.032C176.936 17.192 176.712 17.424 176.544 17.728C176.376 18.024 176.292 18.38 176.292 18.796C176.292 19.204 176.376 19.56 176.544 19.864C176.712 20.168 176.936 20.4 177.216 20.56C177.504 20.72 177.828 20.8 178.188 20.8ZM183.043 22V15.592H184.471V17.356L184.303 16.84C184.495 16.408 184.795 16.08 185.203 15.856C185.619 15.632 186.135 15.52 186.751 15.52V16.948C186.687 16.932 186.627 16.924 186.571 16.924C186.515 16.916 186.459 16.912 186.403 16.912C185.835 16.912 185.383 17.08 185.047 17.416C184.711 17.744 184.543 18.236 184.543 18.892V22H183.043ZM191.398 22V15.592H192.898V22H191.398ZM192.154 14.536C191.874 14.536 191.642 14.448 191.458 14.272C191.282 14.096 191.194 13.884 191.194 13.636C191.194 13.38 191.282 13.168 191.458 13C191.642 12.824 191.874 12.736 192.154 12.736C192.434 12.736 192.662 12.82 192.838 12.988C193.022 13.148 193.114 13.352 193.114 13.6C193.114 13.864 193.026 14.088 192.85 14.272C192.674 14.448 192.442 14.536 192.154 14.536ZM198.947 22.12C198.291 22.12 197.687 22.012 197.135 21.796C196.583 21.58 196.103 21.28 195.695 20.896C195.287 20.504 194.971 20.048 194.747 19.528C194.523 19 194.411 18.424 194.411 17.8C194.411 17.176 194.523 16.604 194.747 16.084C194.971 15.556 195.287 15.1 195.695 14.716C196.103 14.324 196.583 14.02 197.135 13.804C197.687 13.588 198.287 13.48 198.935 13.48C199.591 13.48 200.191 13.588 200.735 13.804C201.287 14.02 201.767 14.324 202.175 14.716C202.583 15.1 202.899 15.556 203.123 16.084C203.347 16.604 203.459 17.176 203.459 17.8C203.459 18.424 203.347 19 203.123 19.528C202.899 20.056 202.583 20.512 202.175 20.896C201.767 21.28 201.287 21.58 200.735 21.796C200.191 22.012 199.595 22.12 198.947 22.12ZM198.935 20.752C199.359 20.752 199.751 20.68 200.111 20.536C200.471 20.392 200.783 20.188 201.047 19.924C201.311 19.652 201.515 19.34 201.659 18.988C201.811 18.628 201.887 18.232 201.887 17.8C201.887 17.368 201.811 16.976 201.659 16.624C201.515 16.264 201.311 15.952 201.047 15.688C200.783 15.416 200.471 15.208 200.111 15.064C199.751 14.92 199.359 14.848 198.935 14.848C198.511 14.848 198.119 14.92 197.759 15.064C197.407 15.208 197.095 15.416 196.823 15.688C196.559 15.952 196.351 16.264 196.199 16.624C196.055 16.976 195.983 17.368 195.983 17.8C195.983 18.224 196.055 18.616 196.199 18.976C196.351 19.336 196.559 19.652 196.823 19.924C197.087 20.188 197.399 20.392 197.759 20.536C198.119 20.68 198.511 20.752 198.935 20.752ZM207.716 22.12C207.06 22.12 206.432 22.028 205.832 21.844C205.232 21.652 204.756 21.408 204.404 21.112L204.944 19.9C205.28 20.164 205.696 20.384 206.192 20.56C206.688 20.736 207.196 20.824 207.716 20.824C208.156 20.824 208.512 20.776 208.784 20.68C209.056 20.584 209.256 20.456 209.384 20.296C209.512 20.128 209.576 19.94 209.576 19.732C209.576 19.476 209.484 19.272 209.3 19.12C209.116 18.96 208.876 18.836 208.58 18.748C208.292 18.652 207.968 18.564 207.608 18.484C207.256 18.404 206.9 18.312 206.54 18.208C206.188 18.096 205.864 17.956 205.568 17.788C205.28 17.612 205.044 17.38 204.86 17.092C204.676 16.804 204.584 16.436 204.584 15.988C204.584 15.532 204.704 15.116 204.944 14.74C205.192 14.356 205.564 14.052 206.06 13.828C206.564 13.596 207.2 13.48 207.968 13.48C208.472 13.48 208.972 13.544 209.468 13.672C209.964 13.8 210.396 13.984 210.764 14.224L210.272 15.436C209.896 15.212 209.508 15.048 209.108 14.944C208.708 14.832 208.324 14.776 207.956 14.776C207.524 14.776 207.172 14.828 206.9 14.932C206.636 15.036 206.44 15.172 206.312 15.34C206.192 15.508 206.132 15.7 206.132 15.916C206.132 16.172 206.22 16.38 206.396 16.54C206.58 16.692 206.816 16.812 207.104 16.9C207.4 16.988 207.728 17.076 208.088 17.164C208.448 17.244 208.804 17.336 209.156 17.44C209.516 17.544 209.84 17.68 210.128 17.848C210.424 18.016 210.66 18.244 210.836 18.532C211.02 18.82 211.112 19.184 211.112 19.624C211.112 20.072 210.988 20.488 210.74 20.872C210.5 21.248 210.128 21.552 209.624 21.784C209.12 22.008 208.484 22.12 207.716 22.12Z" fill="white"/>
<path d="M0 4C0 1.79086 1.79086 0 4 0H33V35H4C1.79086 35 0 33.2091 0 31V4Z" fill="white"/>
<path d="M13.75 9.75L16 13.5562" stroke="#363F5C" stroke-width="2" stroke-linecap="round" stroke-linejoin="round"/>
<path d="M18.25 9.75L11.1625 21.75" stroke="#363F5C" stroke-width="2" stroke-linecap="round" stroke-linejoin="round"/>
<path d="M20.8375 21.75H25.75" stroke="#363F5C" stroke-width="2" stroke-linecap="round" stroke-linejoin="round"/>
<path d="M18.175 17.2406L23.5 26.25" stroke="#363F5C" stroke-width="2" stroke-linecap="round" stroke-linejoin="round"/>
<path d="M6.25 21.75H16.4875" stroke="#363F5C" stroke-width="2" stroke-linecap="round" stroke-linejoin="round"/>
<path d="M8.94063 25.5L8.5 26.25" stroke="#363F5C" stroke-width="2" stroke-linecap="round" stroke-linejoin="round"/>
</svg>
